# xmcd
#
# Track frame offsets:
# 150
# 21014
# 38102
# 56606
# 69548
# 91684
# 105078
# 119277
# 132266
# 146845
# 161059
# 178011
# 194544
# 214253
# 232282
# 249621
# 269030
# 287348
# 303155
#
# Disc length: 4301 seconds
#
# Revision: 0
# Processed by: cddbd v1.5PL3 Copyright (c) Steve Scherf et al.
# Submitted via: Audion 3.0.2 (http://www.panic.com/audion/)
#
DISCID=1710cb13
DTITLE=Mixed - Ljud CD #1
DYEAR=1900
DGENRE=
TTITLE0=American Pie
TTITLE1=Freaky Friday
TTITLE2=Mrs Robinson
TTITLE3=Bye Bye Love
TTITLE4=Bridge Over Troubled Water
TTITLE5=Cecilia
TTITLE6=El Condor Pasa
TTITLE7=I'm A Rock
TTITLE8=Scarborough Fair/Canticle
TTITLE9=The Sound Of Silence
TTITLE10=When The Heartace Is Over
TTITLE11=Cartoon Heroes
TTITLE12=Aquarius
TTITLE13=Good Guys
TTITLE14=Halloween
TTITLE15=We Belong To The Sea
TTITLE16=Back From Mars
TTITLE17=Around The World
TTITLE18=Don't Leave Me This Way
EXTD=
EXTT0=
EXTT1=
EXTT2=
EXTT3=
EXTT4=
EXTT5=
EXTT6=
EXTT7=
EXTT8=
EXTT9=
EXTT10=
EXTT11=
EXTT12=
EXTT13=
EXTT14=
EXTT15=
EXTT16=
EXTT17=
EXTT18=
PLAYORDER=
